<?xml version="1.0" encoding="utf-8"?>
<!-- Generator: Adobe Illustrator 21.0.0, SVG Export Plug-In . SVG Version: 6.00 Build 0)  -->
<svg version="1.1" id="Layer_1" xmlns:svg="http://www.w3.org/2000/svg"
	 xmlns="http://www.w3.org/2000/svg" xmlns:xlink="http://www.w3.org/1999/xlink" x="0px" y="0px" viewBox="0 0 331 324"
	 style="enable-background:new 0 0 331 324;" xml:space="preserve">
<style type="text/css">
	.st0{fill:#7F7F7F;stroke:#000000;stroke-width:4;}
	.st1{fill:#7F7F7F;stroke:#000000;stroke-width:4;stroke-linecap:round;}
	.st2{fill:#3F3F3F;}
	.st3{fill:#FFFFFF;stroke:#000000;stroke-width:2;stroke-linecap:round;}
	.st4{fill:none;stroke:#000000;stroke-width:2.8597;stroke-linecap:round;}
</style>
<title>black mouse c57bl/6</title>
<g>
	<title>Layer 1</title>
	<path id="path3264" class="st0" d="M227.1,52c-1.9-23.3-78.1-85.6-144.8-22.7S9.9,62.7,3.6,64c-6.3,1.3,6.3,14.9,23.9,12.6
		C71,70.9,100,16.7,140.3,17.4c40.6,0.6,62.3,35.9,62.3,35.9L227.1,52z"/>
	<path id="path2407" d="M140.2,11.2c-18.1,0.2-37.6,7.3-56.3,26.1C66.7,54.5,54,64.4,44.6,69.9v1.9c34.5-14.6,60.9-55,95.7-54.4
		c40.6,0.6,62.3,35.9,62.3,35.9l9.4-0.5C204.7,36.3,175.2,10.8,140.2,11.2z"/>
	<path id="path2383" class="st1" d="M317.1,151.5c0,57-62.1,161.8-103.7,161.8c-42.8,0-103.7-104.8-103.7-161.8
		S156.1,48.2,213.4,48.2S317.1,94.5,317.1,151.5z"/>
	<path id="path3397" d="M315.8,134.6c0.2,2.9,0.4,5.9,0.4,8.8c0,57-61.8,161.8-103.2,161.8c-38.8,0-92.7-87.2-101.9-145.8
		c5.1,58.2,62.3,153.7,102.9,153.8c41.4,0,103.2-104.8,103.2-161.8C317.1,145.7,316.7,140.1,315.8,134.6z"/>
	<path id="path2386" class="st1" d="M285.7,233c24-2.4,42.8-22.6,42.8-47.3c0-26.2-21.3-47.5-47.5-47.5c-26.2,0-47.5,21.3-47.5,47.5
		c0,1.8,0.1,3.7,0.3,5.5"/>
	<path id="path2388" class="st1" d="M190.9,191.8c0.2-2,0.4-4,0.4-6c0-26.2-21.3-47.5-47.5-47.5c-26.2,0-47.5,21.3-47.5,47.5
		c0,25.3,19.7,45.9,44.6,47.4"/>
	<path id="path2390" class="st2" d="M225.3,291.6c0,6.1-7.3,13.5-11.1,13.5c-4.2,0-11.1-7.3-11.1-13.5c0-6.1,5-5.4,11.1-5.4
		C220.3,286.2,225.3,285.5,225.3,291.6z"/>
	<path id="path2397" class="st3" d="M191.9,250.6c0,5.7-3.5,10.4-7.9,10.4c-4.3,0-7.9-4.7-7.9-10.4c0-5.7,3.5-10.4,7.9-10.4
		C188.4,240.2,191.9,244.9,191.9,250.6z"/>
	<path id="path2399" class="st3" d="M248.5,250.6c0,5.7-3.5,10.4-7.9,10.4c-4.3,0-7.9-4.7-7.9-10.4c0-5.7,3.5-10.4,7.9-10.4
		C245,240.2,248.5,244.9,248.5,250.6z"/>
	<path id="path2401" d="M187.2,248.2c0,2-1,3.6-2.2,3.6c-1.2,0-2.2-1.6-2.2-3.6c0-2,1-3.6,2.2-3.6
		C186.2,244.6,187.2,246.2,187.2,248.2L187.2,248.2z"/>
	<path id="path2403" d="M242.2,249.1c0,2-1,3.6-2.2,3.6c-1.2,0-2.2-1.6-2.2-3.6c0-2,1-3.6,2.2-3.6
		C241.2,245.6,242.2,247.2,242.2,249.1L242.2,249.1z"/>
	<path id="path2427" d="M281.1,145c-17.8,0.3-34.4,14.1-38.6,31.2c8.4-5.5,18.9-8.8,30.3-8.8c22.9,0,42.2,13.3,47.9,31.2
		c9-24-11.6-53.9-37.5-53.7C282.4,145,281.8,145,281.1,145z"/>
	<g id="g3221">
		<path id="path2445" class="st4" d="M234.7,285.9c45.6-21.2,66.6-1.8,66.6-1.8"/>
		<path id="path2447" class="st4" d="M230.4,293.9c33.3-21.2,62.2,13.3,62.2,13.3"/>
		<path id="path2449" class="st4" d="M230.4,298.3c35-17.7,41.2,25.7,41.2,25.7"/>
	</g>
	<g id="g3384">
		<path id="path3386" class="st4" d="M193.1,285.9c-45.6-21.2-66.6-1.8-66.6-1.8"/>
		<path id="path3388" class="st4" d="M197.5,293.9c-33.3-21.2-62.2,13.3-62.2,13.3"/>
		<path id="path3390" class="st4" d="M197.5,298.3c-35-17.7-41.2,25.7-41.2,25.7"/>
	</g>
	<path id="path3405" d="M145.6,145c17.8,0.3,34.4,14.1,38.6,31.2c-8.4-5.5-18.9-8.8-30.3-8.8c-22.9,0-42.2,13.3-47.9,31.2
		c-9-24,11.6-53.9,37.5-53.7C144.2,145,144.9,145,145.6,145z"/>
</g>
</svg>
